<?xml version='1.0' encoding='iso-8859-1'?>
<!DOCTYPE svg PUBLIC '-//W3C//DTD SVG 1.1//EN' 'http://www.w3.org/Graphics/SVG/1.1/DTD/svg11.dtd'>
<svg version="1.1" xmlns="http://www.w3.org/2000/svg" viewBox="0 0 300.307 300.307" xmlns:xlink="http://www.w3.org/1999/xlink" enable-background="new 0 0 300.307 300.307">
  <path d="m295.717,73.05l-74.486-32.663c-3.878-1.701-8.4,0.065-10.1,3.942l-12.691,28.942c-0.155,0.353-0.196,0.746-0.117,1.124l2.181,10.426c0.113,0.54 0.461,1.002 0.949,1.26l5.886,3.11c0.569,0.301 0.941,0.874 0.984,1.516l.646,9.703c-0.055,0.056-0.106,0.108-0.162,0.165-0.577,0.602-1.198,1.193-1.761,1.833-26.314,30.365-34.566,60.047-41.029,81.902-0.07,0.241-0.118,0.505-0.179,0.757h-20.437c1.501-12.413-2.56-28.273-9.86-39.322-9.592-14.518-25.372-21.639-38.261-18.355l-68.892-117.717c-0.274-0.466-0.583-0.938-0.913-1.382-5.014-6.758-14.557-8.173-21.315-3.159-6.758,5.014-8.173,14.557-3.159,21.315l81.262,109.541c-8.077,10.568-7.715,27.877 1.877,42.395 1.514,2.291 3.278,4.533 5.222,6.683h-27.188c-6.903,0-12.5,5.597-12.5,12.5 0,30.734 14.743,58.12 37.594,75.609h-2.528c-6.903,0-12.5,5.597-12.5,12.5 0,6.903 5.597,12.5 12.5,12.5h122.951c6.903,0 12.5-5.597 12.5-12.5 0-6.903-5.597-12.5-12.5-12.5h-2.528c22.85-17.489 37.594-44.875 37.594-75.609 0-6.903-5.597-12.5-12.5-12.5h-32.999c1.878-25.177 5.402-43.917 16.209-67.133l50.801,22.277c3.878,1.7 8.4-0.065 10.1-3.942l23.292-53.118c1.7-3.877-0.065-8.399-3.943-10.1z"/>
</svg>
